HIERARCHY
ROOT Hips
{
     OFFSET 1.88212 96.90440 -13.34250
     CHANNELS 6 Xposition Yposition Zposition Zrotation Xrotation Yrotation
     JOINT Spine
     {
          OFFSET 0.00000 11.89050 0.00000
          CHANNELS 3 Zrotation Xrotation Yrotation
          JOINT Spine1
          {
               OFFSET -0.00000 25.65740 0.12766
               CHANNELS 3 Zrotation Xrotation Yrotation
               JOINT HEad
               {
                    OFFSET 0.00000 8.73416 0.01134
                    CHANNELS 3 Zrotation Xrotation Yrotation
                    End Site
                    {
                         OFFSET -0.29000 12.77420 2.51395
                    }
               }
               JOINT LeftShoulder1
               {
                    OFFSET 8.99000 -0.36225 -0.22000
                    CHANNELS 3 Zrotation Xrotation Yrotation
                    JOINT LeftArm
                    {
                         OFFSET 10.28270 -0.00338 0.32212
                         CHANNELS 3 Zrotation Xrotation Yrotation
                         JOINT LeftForeArm
                         {
                              OFFSET 32.76690 0.09914 -1.42434
                              CHANNELS 3 Zrotation Xrotation Yrotation
                              JOINT LeftHand
                              {
                                   OFFSET 27.56430 0.08536 1.02216
                                   CHANNELS 3 Zrotation Xrotation Yrotation
                                   End Site
                                   {
                                        OFFSET 16.74430 -0.60000 1.50291
                                   }
                              }
                         }
                    }
               }
               JOINT RightShoulder
               {
                    OFFSET -8.99000 -0.36225 -0.22000
                    CHANNELS 3 Zrotation Xrotation Yrotation
                    JOINT RightArm
                    {
                         OFFSET -10.28270 -0.00338 0.32212
                         CHANNELS 3 Zrotation Xrotation Yrotation
                         JOINT RightForeArm
                         {
                              OFFSET -32.89710 0.09914 -1.42434
                              CHANNELS 3 Zrotation Xrotation Yrotation
                              JOINT RightHand
                              {
                                   OFFSET -27.49210 0.08536 1.02216
                                   CHANNELS 3 Zrotation Xrotation Yrotation
                                   End Site
                                   {
                                        OFFSET -16.63120 -0.60000 1.50291
                                   }
                              }
                         }
                    }
               }
          }
     }
     JOINT LeftUpLeg
     {
          OFFSET 8.94580 -8.66707 0.10165
          CHANNELS 3 Zrotation Xrotation Yrotation
          JOINT LeftLeg
          {
               OFFSET 0.00000 -44.42270 1.37270
               CHANNELS 3 Zrotation Xrotation Yrotation
               JOINT LeftFoot
               {
                    OFFSET -0.25355 -42.09240 -1.46059
                    CHANNELS 3 Zrotation Xrotation Yrotation
                    JOINT LeftToes
                    {
                         OFFSET -0.04000 -4.41509 8.49910
                         CHANNELS 3 Zrotation Xrotation Yrotation
                         End Site
                         {
                              OFFSET 0.08000 -0.04745 9.77979
                         }
                    }
               }
          }
     }
     JOINT RightUpLeg
     {
          OFFSET -8.94580 -8.66707 0.10165
          CHANNELS 3 Zrotation Xrotation Yrotation
          JOINT RightLeg
          {
               OFFSET 0.00000 -44.42270 1.37270
               CHANNELS 3 Zrotation Xrotation Yrotation
               JOINT RightFoot
               {
                    OFFSET 0.25355 -42.09240 -1.46059
                    CHANNELS 3 Zrotation Xrotation Yrotation
                    JOINT RightToes
                    {
                         OFFSET 0.04000 -4.41509 8.49910
                         CHANNELS 3 Zrotation Xrotation Yrotation
                         End Site
                         {
                              OFFSET -0.08000 -0.13745 9.77979
                         }
                    }
               }
          }
     }
}
MOTION
Frames: 10
Frame Time: 0.01667
98.41551 83.33430 -104.63936 -10.93596 -0.59821 -39.31383 11.13122 13.18533 -1.50461 -0.08889 0.10831 0.07495 1.98819 15.16967 3.62202 -18.54147 12.69780 19.19436 -103.80376 -55.35279 -87.06973 -41.47111 56.39806 -101.83699 6.43311 8.69306 1.88730 0.41565 20.51692 25.44361 71.36041 -27.04279 74.03810 27.76833 47.60163 110.41357 -7.43271 12.11254 -1.65295 5.81423 -29.83018 22.44809 368.63312 50.12365 -364.53973 19.34401 -0.62625 0.50971 -16.56741 -2.96492 -18.19044 -24.05161 -14.47460 7.02421 -290.27197 56.24868 318.62143 17.53905 -0.22777 -0.68692 7.56351 1.86871 -7.89096 
101.11146 86.58958 -103.55321 -8.46612 -0.73147 -42.58673 7.98547 13.33879 0.29515 -0.08279 0.09911 0.06053 1.87751 16.90800 2.90244 -18.05249 10.77732 19.11413 -102.32262 -55.79840 -85.04850 -39.98207 57.09185 -103.37247 7.24146 8.48539 2.15223 1.14520 18.86896 25.64175 70.04060 -27.28650 71.91242 28.24225 47.37703 111.12415 -6.84494 13.25052 -0.58336 0.80447 -28.25633 18.85905 372.42072 42.48196 -368.89276 8.69284 -0.71836 0.45690 -15.12140 -4.79338 -7.01076 -21.33901 -11.17251 3.52764 -291.92224 58.61565 321.09235 13.28442 0.00096 -0.19629 -0.26597 -17.59751 -0.76626 
103.38927 89.23828 -102.91917 -4.35912 -1.21127 -46.44505 3.31054 12.21081 3.10232 0.00016 0.01121 0.02519 1.61012 18.36953 2.44447 -17.33662 9.17373 18.64277 -101.08687 -56.25972 -83.17818 -38.54313 57.67240 -104.78402 7.16701 8.80000 1.28332 2.11661 17.39544 25.48289 68.64261 -27.38153 69.79951 28.44782 47.24295 111.99788 -6.75879 12.07092 -0.69237 -4.80859 -28.14245 15.23751 375.47293 35.40870 -371.44730 -2.21395 -0.80413 0.33692 5.48273 -2.43693 -14.68448 -19.42355 -8.38457 0.38983 -302.60803 58.81303 329.38501 5.93962 -0.18969 -0.05366 -2.71686 -29.17100 -2.50032 
105.50969 91.18646 -102.70543 -0.90261 -1.75732 -49.86143 -0.69126 10.97272 5.54132 0.00106 0.00891 0.02062 0.35294 18.86527 3.66628 -10.29848 7.45030 7.10954 -107.25859 -67.08656 -82.96847 -37.45224 58.27352 -106.44301 7.51955 8.56446 1.28762 8.71696 11.59335 14.06579 63.55861 -15.95007 66.83999 28.53345 47.05500 112.38966 -6.50330 12.84024 0.28386 -9.67216 -28.02967 10.40632 378.19489 29.33788 -372.96448 -13.12289 -0.86587 0.16176 9.22889 6.22021 -16.47437 -16.96508 -4.73149 -3.05976 -320.86877 55.18534 342.40155 -1.47946 -0.33161 0.19067 -0.20150 -38.36151 -9.04504 
107.35757 92.54876 -102.80991 2.22626 -2.37660 -53.16961 -4.38362 9.55395 7.81309 0.00135 0.00737 0.00733 -1.11440 19.02731 5.31954 -5.46854 5.32328 -0.21500 -112.76104 -74.43413 -84.05994 -36.57292 58.87542 -108.34527 7.75573 8.51515 1.20960 12.97122 6.76860 7.08888 60.23018 -8.39871 65.24512 28.73209 46.76888 112.49134 -6.36102 13.14357 1.07172 -14.24209 -27.83643 5.13381 380.55621 23.53494 -373.71524 -23.43113 -0.83851 0.02973 13.16289 11.87006 -13.93664 -14.38230 -0.99689 -6.74414 -335.82294 48.79897 353.28784 -8.14166 -0.26869 0.18084 5.61013 -42.72439 -15.65111 
109.30472 93.26093 -103.11670 4.98522 -3.01348 -56.38429 -7.72706 8.03415 9.89857 0.00087 0.00198 0.00204 -2.50381 19.07363 6.97176 -1.91245 3.54762 -4.66012 -114.95896 -78.13293 -83.69024 -35.09627 58.42195 -110.08973 7.86398 8.36719 1.11453 15.85374 3.24941 2.67044 58.06064 -3.55384 64.47571 28.97870 46.49726 112.47541 -6.35935 13.23710 1.61258 -18.25315 -27.57844 -0.40926 383.02908 18.12541 -374.12274 -33.29649 -0.80698 -0.08050 15.14065 11.69271 -12.03566 -11.82573 2.50096 -10.46324 -347.33130 40.23024 361.15930 -12.58050 -0.21241 0.13510 4.20088 -46.16532 -21.00278 
111.13481 93.61710 -103.49478 7.40322 -3.63513 -59.50523 -10.73510 6.43281 11.79220 -0.00046 -0.00143 -0.00092 -3.80061 19.01078 8.63118 0.85823 2.32575 -7.06129 -112.32976 -78.89998 -79.85522 -33.19367 57.01436 -111.47787 7.87280 8.11678 1.09316 17.92307 0.98599 -0.20821 57.38517 -1.65461 63.82110 29.04383 46.21883 112.20544 -5.69395 12.09507 2.57298 -21.31356 -27.31063 -5.92112 384.21130 13.55552 -373.98376 -30.31319 0.18422 0.01382 6.39744 5.36031 -9.64433 -9.31270 5.81538 -14.18365 -355.40863 30.21347 366.70651 -15.40868 -0.14519 0.09357 -1.23750 -48.50689 -23.80651 
112.76935 93.24287 -103.87863 8.89679 -4.40201 -62.69674 -13.52036 5.40510 13.30993 -0.01233 0.01605 -0.02766 -5.18210 19.03539 10.42229 3.02402 1.57380 -7.87710 -107.92261 -77.55708 -75.14506 -31.95410 55.80028 -110.26258 8.53353 8.82860 0.56067 18.37359 1.31724 -4.91053 59.92341 0.82691 65.97044 28.73447 46.33350 110.63964 -4.33274 12.99082 -1.39822 -22.97910 -26.42461 -10.88741 385.32700 9.64395 -372.74902 -26.84001 0.25935 -0.02195 -0.02147 2.68217 -5.31030 -6.99894 9.49972 -17.39111 -359.96317 18.92546 369.31580 -15.36508 -0.01863 -0.01274 -2.99590 -47.49519 -21.76320 
114.28842 92.80813 -104.16819 9.50145 -5.22354 -65.83984 -16.05852 4.93550 14.39796 -0.01044 0.01746 -0.02889 -6.68944 19.16209 12.26911 4.68824 1.25740 -7.35195 -104.42459 -74.56787 -71.95996 -31.35653 54.82699 -106.78570 9.77419 10.34524 -1.03146 19.00394 1.89077 -7.67467 62.40658 2.49684 67.19247 27.70430 45.51225 108.47610 -1.77654 15.16262 -7.28664 -23.29770 -24.91019 -15.31364 386.34561 6.29200 -370.44876 -22.90340 0.24651 -0.05277 -2.47791 5.59326 2.19487 -4.90761 13.57836 -20.27766 -361.97729 7.03448 370.10934 -13.54038 0.08398 -0.09739 -2.63081 -44.08066 -16.46277 
115.73225 92.23858 -104.38593 9.26077 -6.01244 -68.84810 -18.32110 5.04351 15.03390 -0.00760 0.01750 -0.02841 -8.35229 19.33948 14.15880 5.92958 1.25350 -5.83042 -101.99337 -71.60706 -70.33445 -31.23511 53.75945 -103.41261 11.03641 11.78696 -2.46722 19.69021 2.63955 -8.85752 64.84799 3.56157 67.73079 25.84624 43.88778 106.05021 2.21578 18.42765 -13.50954 -22.44663 -22.79214 -19.28843 387.16739 3.49475 -367.17465 -18.49194 0.22457 -0.08086 -6.67316 8.74701 8.57952 -3.02114 18.01392 -22.98767 -362.02554 -4.89350 369.84137 -10.79561 0.15250 -0.15982 -1.85835 -38.82829 -9.70879 
